{
    "asset" : {
        "generator" : "Khronos glTF Blender I/O v3.4.50",
        "version" : "2.0"
    },
    "scene" : 0,
    "scenes" : [
        {
            "name" : "Scene",
            "nodes" : [
                11
            ]
        }
    ],
    "nodes" : [
        {
            "mesh" : 0,
            "name" : "Head",
            "scale" : [
                0.8073112368583679,
                0.8073112368583679,
                0.8073112368583679
            ],
            "translation" : [
                0,
                0.23252195119857788,
                0.9924551248550415
            ]
        },
        {
            "mesh" : 1,
            "name" : "Red",
            "scale" : [
                0.6044933795928955,
                0.6044933795928955,
                0.6044933795928955
            ]
        },
        {
            "name" : "ardini_tail.006",
            "rotation" : [
                -0.680995523929596,
                8.729559652920216e-08,
                -2.4354304173357377e-07,
                0.7322876453399658
            ],
            "scale" : [
                1,
                0.9999999403953552,
                1
            ],
            "translation" : [
                -2.8481181307696626e-14,
                0.5146639943122864,
                8.940696716308594e-08
            ]
        },
        {
            "children" : [
                2
            ],
            "name" : "ardini_tail.005",
            "rotation" : [
                -0.4119440019130707,
                2.3393405065180208e-14,
                -9.821508939467094e-08,
                0.9112092852592468
            ],
            "translation" : [
                3.212333827759539e-14,
                0.50144362449646,
                -4.470348358154297e-08
            ]
        },
        {
            "children" : [
                3
            ],
            "name" : "ardini_tail.004",
            "rotation" : [
                -0.42966586351394653,
                1.07644538616114e-07,
                -5.122016233372051e-08,
                0.9029879570007324
            ],
            "translation" : [
                4.301339185275744e-23,
                1.0294544696807861,
                -2.384185791015625e-07
            ]
        },
        {
            "children" : [
                4
            ],
            "name" : "ardini_tail.003",
            "rotation" : [
                -0.3015696704387665,
                0,
                6.69619183299478e-17,
                0.9534441232681274
            ],
            "translation" : [
                -2.481541837659083e-24,
                0.8935961723327637,
                0
            ]
        },
        {
            "children" : [
                5
            ],
            "name" : "ardini_tail.002",
            "rotation" : [
                -0.2196277529001236,
                1.2718244283635666e-24,
                4.876715100583544e-17,
                0.9755838513374329
            ],
            "translation" : [
                0,
                1.217361330986023,
                -8.940696716308594e-08
            ]
        },
        {
            "children" : [
                6
            ],
            "name" : "ardini_tail.001",
            "rotation" : [
                0.36066704988479614,
                7.228137457421096e-18,
                -6.030501360558234e-17,
                0.932694673538208
            ],
            "translation" : [
                -1.9645539548134407e-24,
                0.36050981283187866,
                -2.60770320892334e-08
            ]
        },
        {
            "children" : [
                7
            ],
            "name" : "ardini_tail",
            "rotation" : [
                -0.7201483249664307,
                -1.1967612706470252e-17,
                -1.1967612706470252e-17,
                0.6938201785087585
            ],
            "translation" : [
                0,
                -0.07109057903289795,
                -0.5493479371070862
            ]
        },
        {
            "name" : "neutral_bone",
            "rotation" : [
                -0.7071068286895752,
                0,
                0,
                0.7071068286895752
            ]
        },
        {
            "children" : [
                0,
                1
            ],
            "mesh" : 2,
            "name" : "Body",
            "skin" : 0
        },
        {
            "children" : [
                10,
                8,
                9
            ],
            "name" : "Armature",
            "translation" : [
                0,
                0.5258938670158386,
                0
            ]
        }
    ],
    "materials" : [
        {
            "doubleSided" : true,
            "name" : "ardini",
            "pbrMetallicRoughness" : {
                "baseColorFactor" : [
                    0.8000000715255737,
                    0.04063516482710838,
                    0.08107713609933853,
                    1
                ],
                "metallicFactor" : 0,
                "roughnessFactor" : 0.5
            }
        }
    ],
    "meshes" : [
        {
            "name" : "head",
            "primitives" : [
                {
                    "attributes" : {
                        "POSITION" : 0,
                        "TEXCOORD_0" : 1,
                        "NORMAL" : 2
                    },
                    "indices" : 3,
                    "material" : 0
                }
            ]
        },
        {
            "name" : "red",
            "primitives" : [
                {
                    "attributes" : {
                        "POSITION" : 4,
                        "TEXCOORD_0" : 5,
                        "NORMAL" : 6
                    },
                    "indices" : 7,
                    "material" : 0
                }
            ]
        },
        {
            "name" : "body",
            "primitives" : [
                {
                    "attributes" : {
                        "POSITION" : 8,
                        "TEXCOORD_0" : 9,
                        "NORMAL" : 10,
                        "JOINTS_0" : 11,
                        "WEIGHTS_0" : 12
                    },
                    "indices" : 13,
                    "material" : 0
                }
            ]
        }
    ],
    "skins" : [
        {
            "inverseBindMatrices" : 14,
            "joints" : [
                8,
                7,
                6,
                5,
                4,
                3,
                2,
                9
            ],
            "name" : "Armature"
        }
    ],
    "accessors" : [
        {
            "bufferView" : 0,
            "componentType" : 5126,
            "count" : 207,
            "max" : [
                0.7068237662315369,
                0.440954327583313,
                0.2813950181007385
            ],
            "min" : [
                -0.7068237662315369,
                -0.5,
                -0.617006778717041
            ],
            "type" : "VEC3"
        },
        {
            "bufferView" : 1,
            "componentType" : 5126,
            "count" : 207,
            "type" : "VEC2"
        },
        {
            "bufferView" : 2,
            "componentType" : 5126,
            "count" : 207,
            "type" : "VEC3"
        },
        {
            "bufferView" : 3,
            "componentType" : 5123,
            "count" : 528,
            "type" : "SCALAR"
        },
        {
            "bufferView" : 4,
            "componentType" : 5126,
            "count" : 146,
            "max" : [
                0.4962833523750305,
                0.9601907134056091,
                0.4962833523750305
            ],
            "min" : [
                -0.4962833523750305,
                0.45344769954681396,
                -0.4962833523750305
            ],
            "type" : "VEC3"
        },
        {
            "bufferView" : 5,
            "componentType" : 5126,
            "count" : 146,
            "type" : "VEC2"
        },
        {
            "bufferView" : 6,
            "componentType" : 5126,
            "count" : 146,
            "type" : "VEC3"
        },
        {
            "bufferView" : 7,
            "componentType" : 5123,
            "count" : 480,
            "type" : "SCALAR"
        },
        {
            "bufferView" : 8,
            "componentType" : 5126,
            "count" : 417,
            "max" : [
                0.8419484496116638,
                1.9703869819641113,
                0.8261659145355225
            ],
            "min" : [
                -0.8419484496116638,
                -0.1959267258644104,
                -4.324868679046631
            ],
            "type" : "VEC3"
        },
        {
            "bufferView" : 9,
            "componentType" : 5126,
            "count" : 417,
            "type" : "VEC2"
        },
        {
            "bufferView" : 10,
            "componentType" : 5126,
            "count" : 417,
            "type" : "VEC3"
        },
        {
            "bufferView" : 11,
            "componentType" : 5121,
            "count" : 417,
            "type" : "VEC4"
        },
        {
            "bufferView" : 12,
            "componentType" : 5126,
            "count" : 417,
            "type" : "VEC4"
        },
        {
            "bufferView" : 13,
            "componentType" : 5123,
            "count" : 969,
            "type" : "SCALAR"
        },
        {
            "bufferView" : 14,
            "componentType" : 5126,
            "count" : 8,
            "type" : "MAT4"
        }
    ],
    "bufferViews" : [
        {
            "buffer" : 0,
            "byteLength" : 2484,
            "byteOffset" : 0,
            "target" : 34962
        },
        {
            "buffer" : 0,
            "byteLength" : 1656,
            "byteOffset" : 2484,
            "target" : 34962
        },
        {
            "buffer" : 0,
            "byteLength" : 2484,
            "byteOffset" : 4140,
            "target" : 34962
        },
        {
            "buffer" : 0,
            "byteLength" : 1056,
            "byteOffset" : 6624,
            "target" : 34963
        },
        {
            "buffer" : 0,
            "byteLength" : 1752,
            "byteOffset" : 7680,
            "target" : 34962
        },
        {
            "buffer" : 0,
            "byteLength" : 1168,
            "byteOffset" : 9432,
            "target" : 34962
        },
        {
            "buffer" : 0,
            "byteLength" : 1752,
            "byteOffset" : 10600,
            "target" : 34962
        },
        {
            "buffer" : 0,
            "byteLength" : 960,
            "byteOffset" : 12352,
            "target" : 34963
        },
        {
            "buffer" : 0,
            "byteLength" : 5004,
            "byteOffset" : 13312,
            "target" : 34962
        },
        {
            "buffer" : 0,
            "byteLength" : 3336,
            "byteOffset" : 18316,
            "target" : 34962
        },
        {
            "buffer" : 0,
            "byteLength" : 5004,
            "byteOffset" : 21652,
            "target" : 34962
        },
        {
            "buffer" : 0,
            "byteLength" : 1668,
            "byteOffset" : 26656,
            "target" : 34962
        },
        {
            "buffer" : 0,
            "byteLength" : 6672,
            "byteOffset" : 28324,
            "target" : 34962
        },
        {
            "buffer" : 0,
            "byteLength" : 1938,
            "byteOffset" : 34996,
            "target" : 34963
        },
        {
            "buffer" : 0,
            "byteLength" : 512,
            "byteOffset" : 36936
        }
    ],
    "buffers" : [
        {
            "byteLength" : 37448,
            "uri" : "ardini.bin"
        }
    ]
}
